<?xml version="1.0" encoding="utf-8"?>
<!-- Generator: Adobe Illustrator 16.0.0, SVG Export Plug-In . SVG Version: 6.00 Build 0)  -->
<!DOCTYPE svg PUBLIC "-//W3C//DTD SVG 1.1//EN" "http://www.w3.org/Graphics/SVG/1.1/DTD/svg11.dtd">
<svg version="1.1" id="Capa_1" xmlns="http://www.w3.org/2000/svg" xmlns:xlink="http://www.w3.org/1999/xlink" x="0px" y="0px"
	 width="472.615px" height="472.615px" viewBox="0 0 472.615 472.615" enable-background="new 0 0 472.615 472.615"
	 xml:space="preserve">
<g>
	<path fill="#909090" d="M236.308,0C106.014,0-0.001,106.011-0.001,236.306c0,130.294,106.015,236.309,236.309,236.309
		c130.295,0,236.309-106.015,236.309-236.309S366.603,0,236.308,0z M371.672,144.383l-157.537,177.23
		c-1.94,2.187-4.647,3.309-7.365,3.309c-2.166,0-4.342-0.709-6.154-2.156l-98.461-78.77c-4.244-3.396-4.934-9.59-1.536-13.844
		c3.387-4.233,9.601-4.934,13.834-1.536l91.165,72.931l151.325-170.24c3.623-4.076,9.836-4.439,13.912-0.815
		C374.921,134.094,375.285,140.327,371.672,144.383z"/>
</g>
</svg>
